<svg width="200" height="200" viewBox="0 0 200 200" fill="none" xmlns="http://www.w3.org/2000/svg">
<mask id="mask0" mask-type="alpha" maskUnits="userSpaceOnUse" x="4" y="6" width="192" height="188">
<ellipse cx="99.9475" cy="99.9475" rx="95.4429" ry="93.4429" fill="#C4C4C4"/>
</mask>
<g mask="url(#mask0)">
<rect width="199.895" height="199.895" fill="black"/>
<path d="M99.9472 54.5168H103.566" stroke="#A53030" stroke-width="7.26891" stroke-linecap="round" stroke-linejoin="round"/>
<path d="M110.805 59.9685C109.604 56.334 108.11 54.5288 103.566 54.5168" stroke="#A53030" stroke-width="7.26891" stroke-linecap="round" stroke-linejoin="round"/>
<path d="M110.805 59.9685L127.091 130.84" stroke="#A53030" stroke-width="7.26891" stroke-linejoin="round"/>
<path d="M118.043 139.926C123.449 139.926 127.992 136.292 127.091 130.84" stroke="#A53030" stroke-width="7.26891" stroke-linecap="round" stroke-linejoin="round"/>
<path d="M118.043 139.926H99.9472" stroke="#A53030" stroke-width="7.26891" stroke-linecap="round" stroke-linejoin="round"/>
<path d="M99.9472 54.5168H96.328" stroke="#A53030" stroke-width="7.26891" stroke-linecap="round" stroke-linejoin="round"/>
<path d="M89.0896 59.9685C89.9906 56.334 92.9206 54.5288 96.328 54.5168" stroke="#A53030" stroke-width="7.26891" stroke-linecap="round" stroke-linejoin="round"/>
<path d="M89.0901 59.9685L72.8036 130.84" stroke="#A53030" stroke-width="7.26891" stroke-linejoin="round"/>
<path d="M81.8512 139.926C76.5136 139.926 71.8983 137.201 72.8031 130.84" stroke="#A53030" stroke-width="7.26891" stroke-linecap="round" stroke-linejoin="round"/>
<path d="M81.8512 139.926H99.9472" stroke="#A53030" stroke-width="7.26891" stroke-linecap="round" stroke-linejoin="round"/>
<path d="M112.614 114.485H87.28" stroke="#A53030" stroke-width="7.26891"/>
<path d="M99.9472 127.206L99.9472 70.8719" stroke="#A53030" stroke-width="7.26891"/>
<circle cx="100.856" cy="101.765" r="59.0599" stroke="black" stroke-opacity="0.1" stroke-width="1.81723"/>
</g>
</svg>
